<?xml version="1.0" encoding="UTF-8" standalone="no"?><svg xmlns="http://www.w3.org/2000/svg" xmlns:xlink="http://www.w3.org/1999/xlink" contentStyleType="text/css" height="803px" preserveAspectRatio="none" style="width:903px;height:803px;background:#FFFFFF;" version="1.1" viewBox="0 0 903 803" width="903px" zoomAndPan="magnify"><defs/><g><!--MD5=[15df341091fb2984537e0b51e1db389a]
cluster Organization--><g id="cluster_Organization"><polygon fill="none" points="396.2788,346,406.2788,336,886.2788,336,886.2788,776,876.2788,786,396.2788,786,396.2788,346" style="stroke:#181818;stroke-width:1.0;"/><line style="stroke:#181818;stroke-width:1.0;" x1="876.2788" x2="886.2788" y1="346" y2="336"/><line style="stroke:#181818;stroke-width:1.0;" x1="396.2788" x2="876.2788" y1="346" y2="346"/><line style="stroke:#181818;stroke-width:1.0;" x1="876.2788" x2="876.2788" y1="346" y2="786"/><text fill="#000000" font-family="sans-serif" font-size="14" font-weight="bold" lengthAdjust="spacing" textLength="100" x="587.2788" y="361.9951">Organization</text></g><g id="cluster_##15"><path d="M36.4806,146.9307 C46.0201,130.2844 60.4594,130.2934 70.8308,146.0489 C78.8524,128.4415 91.8024,129.8513 103.3945,142.1626 C114.7751,123.6184 126.9588,126.2763 138.0022,142.4983 C144.1563,126.383 155.1811,124.5825 167.9077,135.1248 C176.2152,119.5703 188.3716,121.0999 196.871,134.9356 C210.3549,121.9002 220.5075,125.403 229.3004,140.3684 C238.4785,125.973 250.0195,123.4111 261.8969,137.2522 C271.3755,121.1632 286.5736,122.5348 293.4779,139.6971 C303.5445,125.3373 318.6476,126.9446 326.4464,142.2199 C342.3495,129.1611 356.0702,130.9045 364.2788,151 C366.0599,151.3549 366.8105,152.7914 365.3961,154.2462 C379.8633,162.543 385.8586,171.0184 371.246,184.8702 C383.8282,194.7685 385.8189,206.9364 370.3942,216.0701 C382.8799,223.0895 383.4925,235.6084 370.4887,242.7181 C387.9523,249.4374 388.8669,261.3079 374.9801,272.7204 C386.9535,280.7256 387.516,293.909 374.2114,301.2327 C389.56,309.3589 392.619,319.5145 378.2573,331.5991 C392.4162,342.6943 395.1139,355.6852 376.3757,364.923 C389.7454,373.1793 387.145,386.5504 374.5876,393.1652 C389.1861,402.4929 392.9947,414.8464 375.9967,425.5488 C386.2615,437.8225 385.1503,447.219 370.3112,454.5756 C386.2523,461.5977 386.7983,471.1225 373.9561,481.9738 C384.9968,495.5686 385.047,505.6847 367.5186,513.4335 C379.7228,520.3572 383.1682,533.3835 369.1987,541.8544 C385.0076,559.8736 375.7087,571.2719 357.2788,578 C357.7622,578.0405 357.8055,578.2796 357.6438,578.671 C350.9921,593.9116 336.9799,596.4482 327.5184,581.4722 C319.7793,600.1681 307.8459,597.1869 295.9963,585.776 C288.0952,600.2378 276.0803,601.0005 265.5846,588.7276 C255.508,603.8526 239.7681,604.7666 228.9647,589.6065 C223.9017,602.6003 210.9298,606.6304 202.3312,593.1655 C190.3026,609.3152 176.8465,608.8641 167.7977,590.2089 C157.1452,607.5416 142.3077,606.0651 132.7867,589.0554 C122.9297,600.2811 108.0242,600.7393 103.6144,583.4774 C93.2713,599.5087 82.3451,597.4061 71.4665,584.0635 C53.4853,597.7899 35.7532,594.4342 29.2788,571 C31.577,570.7811 32.0808,572.403 31.3637,574.1682 C19.7587,566.2485 19.0689,553.5957 32.0144,546.2481 C14.3842,538.1986 17.3572,527.1701 28.8003,516.0284 C13.9879,509.2856 10.6897,496.5524 25.5204,486.5152 C8.348,476.3165 10.0693,465.5679 23.8916,453.8249 C6.2998,444.444 6,430.9855 23.4229,421.1031 C8.9579,413.7478 6.2614,400.2622 21.6077,391.1031 C11.4097,382.9418 11.2033,374.4263 21.9359,366.5448 C6.2355,355.8552 9.586,341.7088 26.0562,335.2556 C9.2391,325.7331 10.9283,311.175 26.5761,302.1625 C14.5679,291.9339 15.3052,283.1754 28.8505,275.0939 C13.0719,266.4568 15.0091,256.9258 26.5945,246.1555 C11.4063,234.3791 11.8066,222.8822 27.8426,212.2553 C17.7257,202.3634 18.7216,191.3631 31.5753,184.5679 C15.0969,172.0779 14.9999,152.1123 36.2788,144 C37.6526,144.8405 37.995,145.8914 36.4806,146.9307 " fill="none" style="stroke:#181818;stroke-width:1.0;"/></g><!--MD5=[e9cbb9dd88ded91326c7c57ecf0f8dfc]
cluster PostgreSQL--><g id="cluster_PostgreSQL"><path d="M194.2788,460 C194.2788,450 271.2788,450 271.2788,450 C271.2788,450 348.2788,450 348.2788,460 L348.2788,552 C348.2788,562 271.2788,562 271.2788,562 C271.2788,562 194.2788,562 194.2788,552 L194.2788,460 " fill="none" style="stroke:#181818;stroke-width:1.0;"/><path d="M194.2788,460 C194.2788,470 271.2788,470 271.2788,470 C271.2788,470 348.2788,470 348.2788,460 " fill="none" style="stroke:#181818;stroke-width:1.0;"/><text fill="#000000" font-family="sans-serif" font-size="14" font-weight="bold" lengthAdjust="spacing" textLength="93" x="224.7788" y="484.9951">PostgreSQL</text></g><!--MD5=[406b65fecc21e832f7a9b6ebadc6dce1]
cluster Client--><g id="cluster_Client"><polygon fill="none" points="225.2788,16,235.2788,6,357.2788,6,357.2788,98,347.2788,108,225.2788,108,225.2788,16" style="stroke:#181818;stroke-width:1.0;"/><line style="stroke:#181818;stroke-width:1.0;" x1="347.2788" x2="357.2788" y1="16" y2="6"/><line style="stroke:#181818;stroke-width:1.0;" x1="225.2788" x2="347.2788" y1="16" y2="16"/><line style="stroke:#181818;stroke-width:1.0;" x1="347.2788" x2="347.2788" y1="16" y2="108"/><text fill="#000000" font-family="sans-serif" font-size="14" font-weight="bold" lengthAdjust="spacing" textLength="45" x="264.7788" y="31.9951">Client</text></g><!--MD5=[962dd4466b8b9fecb56b4ca25d27e02b]
entity Video--><g id="elem_Video"><ellipse cx="639.2788" cy="635" fill="#F1F1F1" rx="8" ry="8" style="stroke:#181818;stroke-width:0.5;"/><text fill="#000000" font-family="sans-serif" font-size="14" lengthAdjust="spacing" textLength="39" x="619.7788" y="664.9951">Video</text></g><!--MD5=[c8f729b8e352a0860913e8756c4779b6]
entity Camera--><g id="elem_Camera"><rect fill="#F1F1F1" height="46.2969" rx="2.5" ry="2.5" style="stroke:#181818;stroke-width:0.5;" width="93" x="592.7788" y="724"/><rect fill="#F1F1F1" height="10" style="stroke:#181818;stroke-width:0.5;" width="15" x="665.7788" y="729"/><rect fill="#F1F1F1" height="2" style="stroke:#181818;stroke-width:0.5;" width="4" x="663.7788" y="731"/><rect fill="#F1F1F1" height="2" style="stroke:#181818;stroke-width:0.5;" width="4" x="663.7788" y="735"/><text fill="#000000" font-family="sans-serif" font-size="14" lengthAdjust="spacing" textLength="53" x="607.7788" y="756.9951">Camera</text></g><!--MD5=[cf738e73942af77e233a8bc8b4c54bb1]
entity Jetson Nano--><g id="elem_Jetson Nano"><rect fill="#F1F1F1" height="46.2969" rx="2.5" ry="2.5" style="stroke:#181818;stroke-width:0.5;" width="123" x="577.7788" y="500"/><rect fill="#F1F1F1" height="10" style="stroke:#181818;stroke-width:0.5;" width="15" x="680.7788" y="505"/><rect fill="#F1F1F1" height="2" style="stroke:#181818;stroke-width:0.5;" width="4" x="678.7788" y="507"/><rect fill="#F1F1F1" height="2" style="stroke:#181818;stroke-width:0.5;" width="4" x="678.7788" y="511"/><text fill="#000000" font-family="sans-serif" font-size="14" lengthAdjust="spacing" textLength="83" x="592.7788" y="532.9951">Jetson Nano</text></g><!--MD5=[bc0268766fd516d55eacaf3cbf8c3bf7]
entity Jetson_Opserver--><g id="elem_Jetson_Opserver"><ellipse cx="639.2788" cy="405" fill="#F1F1F1" rx="8" ry="8" style="stroke:#181818;stroke-width:0.5;"/><text fill="#000000" font-family="sans-serif" font-size="14" lengthAdjust="spacing" textLength="113" x="582.7788" y="434.9951">Jetson_Opserver</text></g><!--MD5=[6b366713766c8c62bae90a092c43081f]
entity Jetson_Stats_API--><g id="elem_Jetson_Stats_API"><ellipse cx="476.2788" cy="405" fill="#F1F1F1" rx="8" ry="8" style="stroke:#181818;stroke-width:0.5;"/><text fill="#000000" font-family="sans-serif" font-size="14" lengthAdjust="spacing" textLength="113" x="419.7788" y="434.9951">Jetson_Stats_API</text></g><!--MD5=[c5a3b968d10fae2dfca1db8fddf7cd76]
entity Jetson_Video_API--><g id="elem_Jetson_Video_API"><ellipse cx="804.2788" cy="405" fill="#F1F1F1" rx="8" ry="8" style="stroke:#181818;stroke-width:0.5;"/><text fill="#000000" font-family="sans-serif" font-size="14" lengthAdjust="spacing" textLength="117" x="745.7788" y="434.9951">Jetson_Video_API</text></g><!--MD5=[d9d71d4211840a16622e2146ed655e13]
entity Spring--><g id="elem_Spring"><rect fill="#F1F1F1" height="46.2969" rx="2.5" ry="2.5" style="stroke:#181818;stroke-width:0.5;" width="84" x="249.2788" y="270"/><rect fill="#F1F1F1" height="10" style="stroke:#181818;stroke-width:0.5;" width="15" x="313.2788" y="275"/><rect fill="#F1F1F1" height="2" style="stroke:#181818;stroke-width:0.5;" width="4" x="311.2788" y="277"/><rect fill="#F1F1F1" height="2" style="stroke:#181818;stroke-width:0.5;" width="4" x="311.2788" y="281"/><text fill="#000000" font-family="sans-serif" font-size="14" lengthAdjust="spacing" textLength="44" x="264.2788" y="302.9951">Spring</text></g><!--MD5=[b98520a36f901888a6badef9de35a53c]
entity PSQL--><g id="elem_PSQL"><ellipse cx="281.2788" cy="405" fill="#F1F1F1" rx="8" ry="8" style="stroke:#181818;stroke-width:0.5;"/><text fill="#000000" font-family="sans-serif" font-size="14" lengthAdjust="spacing" textLength="36" x="263.2788" y="434.9951">PSQL</text></g><!--MD5=[e7f4204efd6b4a5949a239601ec98e13]
entity Spring_Stats_API--><g id="elem_Spring_Stats_API"><ellipse cx="291.2788" cy="181" fill="#F1F1F1" rx="8" ry="8" style="stroke:#181818;stroke-width:0.5;"/><text fill="#000000" font-family="sans-serif" font-size="14" lengthAdjust="spacing" textLength="114" x="234.2788" y="210.9951">Spring_Stats_API</text></g><!--MD5=[6bd4bcd77f290e24ff5c7d0c1e56a433]
entity Spring_Connect_API--><g id="elem_Spring_Connect_API"><ellipse cx="114.2788" cy="181" fill="#F1F1F1" rx="8" ry="8" style="stroke:#181818;stroke-width:0.5;"/><text fill="#000000" font-family="sans-serif" font-size="14" lengthAdjust="spacing" textLength="138" x="45.2788" y="210.9951">Spring_Connect_API</text></g><!--MD5=[89112a84c8daddb34abf4f068893e892]
entity PostgreSQL--><g id="elem_PostgreSQL"><rect fill="#F1F1F1" height="46.2969" rx="2.5" ry="2.5" style="stroke:#181818;stroke-width:0.5;" width="121" x="210.7788" y="500"/><rect fill="#F1F1F1" height="10" style="stroke:#181818;stroke-width:0.5;" width="15" x="311.7788" y="505"/><rect fill="#F1F1F1" height="2" style="stroke:#181818;stroke-width:0.5;" width="4" x="309.7788" y="507"/><rect fill="#F1F1F1" height="2" style="stroke:#181818;stroke-width:0.5;" width="4" x="309.7788" y="511"/><text fill="#000000" font-family="sans-serif" font-size="14" lengthAdjust="spacing" textLength="81" x="225.7788" y="532.9951">PostgreSQL</text></g><!--MD5=[bd0d3c2d865c9ff19a649fcf77cfea2b]
entity Desktop--><g id="elem_Desktop"><rect fill="#F1F1F1" height="46.2969" rx="2.5" ry="2.5" style="stroke:#181818;stroke-width:0.5;" width="99" x="241.7788" y="46"/><rect fill="#F1F1F1" height="10" style="stroke:#181818;stroke-width:0.5;" width="15" x="320.7788" y="51"/><rect fill="#F1F1F1" height="2" style="stroke:#181818;stroke-width:0.5;" width="4" x="318.7788" y="53"/><rect fill="#F1F1F1" height="2" style="stroke:#181818;stroke-width:0.5;" width="4" x="318.7788" y="57"/><text fill="#000000" font-family="sans-serif" font-size="14" lengthAdjust="spacing" textLength="59" x="256.7788" y="78.9951">Desktop</text></g><!--MD5=[8f789530086acdd3b95ffa4b5fbd3dda]
link Video to Camera--><g id="link_Video_Camera"><path d="M639.2788,644.27 C639.2788,660.96 639.2788,699.16 639.2788,723.71 " fill="none" id="Video-Camera" style="stroke:#181818;stroke-width:1.0;"/></g><!--MD5=[7d2d561c5b6ef6cd855586173e93a6be]
link Jetson Nano to Video--><g id="link_Jetson Nano_Video"><path d="M639.2788,546.26 C639.2788,568.56 639.2788,602.16 639.2788,620.64 " fill="none" id="Jetson Nano-to-Video" style="stroke:#181818;stroke-width:1.0;"/><polygon fill="#181818" points="639.2788,625.86,643.2788,616.86,639.2788,620.86,635.2788,616.86,639.2788,625.86" style="stroke:#181818;stroke-width:1.0;"/></g><!--MD5=[b43bf84aca81e83b6cf6155343d0ed84]
link Jetson_Opserver to Jetson Nano--><g id="link_Jetson_Opserver_Jetson Nano"><path d="M639.2788,414.34 C639.2788,432.01 639.2788,473.68 639.2788,499.69 " fill="none" id="Jetson_Opserver-Jetson Nano" style="stroke:#181818;stroke-width:1.0;"/></g><!--MD5=[e576780111c6410672530b0d3082e674]
link Jetson_Stats_API to Jetson Nano--><g id="link_Jetson_Stats_API_Jetson Nano"><path d="M485.5088,412.57 C508.7488,429.1 570.4888,473.04 608.2888,499.95 " fill="none" id="Jetson_Stats_API-Jetson Nano" style="stroke:#181818;stroke-width:1.0;"/></g><!--MD5=[7d40932c2e1f2e8e7d4868c086ed9b66]
link Jetson_Video_API to Jetson Nano--><g id="link_Jetson_Video_API_Jetson Nano"><path d="M794.9388,412.57 C771.4188,429.1 708.9188,473.04 670.6488,499.95 " fill="none" id="Jetson_Video_API-Jetson Nano" style="stroke:#181818;stroke-width:1.0;"/></g><!--MD5=[fe8c46437f6f0bbef6f53df5a6e7c82f]
link Spring to Jetson_Opserver--><g id="link_Spring_Jetson_Opserver"><path d="M333.5288,296.21 C398.4688,300.13 519.3888,309.68 558.2788,328 C589.4788,342.69 616.6188,373.95 630.1388,391.45 " fill="none" id="Spring-to-Jetson_Opserver" style="stroke:#181818;stroke-width:1.0;"/><polygon fill="#181818" points="633.2788,395.59,631.002,386.0079,630.2469,391.6142,624.6407,390.859,633.2788,395.59" style="stroke:#181818;stroke-width:1.0;"/></g><!--MD5=[49b7d90034693504237293651b60e802]
link Spring to Jetson_Stats_API--><g id="link_Spring_Jetson_Stats_API"><path d="M333.3688,309.49 C346.1688,314.77 360.0588,321.1 372.2788,328 C407.0288,347.63 443.8888,376.84 463.0088,392.72 " fill="none" id="Spring-to-Jetson_Stats_API" style="stroke:#181818;stroke-width:1.0;"/><polygon fill="#181818" points="467.0388,396.08,462.6985,387.2391,463.2024,392.8734,457.5681,393.3773,467.0388,396.08" style="stroke:#181818;stroke-width:1.0;"/></g><!--MD5=[15534bf3b65886771179357e3d125cc7]
link Spring to PSQL--><g id="link_Spring_PSQL"><path d="M289.2588,316.26 C287.2288,338.56 284.1688,372.16 282.4888,390.64 " fill="none" id="Spring-to-PSQL" style="stroke:#181818;stroke-width:1.0;"/><polygon fill="#181818" points="282.0188,395.86,286.7994,387.2492,282.4612,390.8796,278.8308,386.5414,282.0188,395.86" style="stroke:#181818;stroke-width:1.0;"/></g><!--MD5=[f6ad7ed210f7dc7ff31ad9e7a8a02c3a]
link Spring_Stats_API to Spring--><g id="link_Spring_Stats_API_Spring"><path d="M291.2788,190.27 C291.2788,206.96 291.2788,245.16 291.2788,269.71 " fill="none" id="Spring_Stats_API-Spring" style="stroke:#181818;stroke-width:1.0;"/></g><!--MD5=[2cb1bff18805c4e7c6cee18c45faeb15]
link Spring_Connect_API to Spring--><g id="link_Spring_Connect_API_Spring"><path d="M123.2988,187.61 C147.3188,202.54 213.8588,243.89 255.6188,269.84 " fill="none" id="Spring_Connect_API-Spring" style="stroke:#181818;stroke-width:1.0;"/></g><!--MD5=[9c6a393997fbeb28e3bfac571956ab29]
link PSQL to PostgreSQL--><g id="link_PSQL_PostgreSQL"><path d="M280.5588,414.34 C279.0388,432.01 275.4488,473.68 273.1988,499.69 " fill="none" id="PSQL-PostgreSQL" style="stroke:#181818;stroke-width:1.0;"/></g><!--MD5=[0cff5c38b8d572775bb5c26d79ecef66]
link Desktop to Spring_Connect_API--><g id="link_Desktop_Spring_Connect_API"><path d="M255.4588,92.26 C216.1188,116.71 154.9388,154.73 127.9088,171.53 " fill="none" id="Desktop-to-Spring_Connect_API" style="stroke:#181818;stroke-width:1.0;"/><polygon fill="#181818" points="123.5688,174.23,133.3229,172.8668,127.8128,171.5864,129.0932,166.0764,123.5688,174.23" style="stroke:#181818;stroke-width:1.0;"/></g><!--MD5=[57b10a985459f49007fcd8420c430843]
link Desktop to Spring_Stats_API--><g id="link_Desktop_Spring_Stats_API"><path d="M291.2788,92.26 C291.2788,114.56 291.2788,148.16 291.2788,166.64 " fill="none" id="Desktop-to-Spring_Stats_API" style="stroke:#181818;stroke-width:1.0;"/><polygon fill="#181818" points="291.2788,171.86,295.2788,162.86,291.2788,166.86,287.2788,162.86,291.2788,171.86" style="stroke:#181818;stroke-width:1.0;"/></g><!--MD5=[dbf1e75a1ec16309de0fb154e4a2528d]
link Desktop to Jetson_Video_API--><g id="link_Desktop_Jetson_Video_API"><path d="M334.2788,92.06 C413.7788,133.65 587.8188,228.44 721.2788,328 C748.7088,348.46 777.4588,376.5 792.8788,392.17 " fill="none" id="Desktop-to-Jetson_Video_API" style="stroke:#181818;stroke-width:1.0;"/><polygon fill="#181818" points="796.5088,395.88,793.0663,386.6524,793.0092,392.3089,787.3526,392.2518,796.5088,395.88" style="stroke:#181818;stroke-width:1.0;"/></g><!--MD5=[fc634ec252697fb559a0a7cf6efc42bc]
@startuml "design-alternative"

node Organization {
    Video - - [Camera]

    [Jetson Nano] - -> Video

    Jetson_Opserver - - [Jetson Nano]
    Jetson_Stats_API - - [Jetson Nano]
    Jetson_Video_API - - [Jetson Nano]
}

cloud {
    [Spring] - -> Jetson_Opserver
    [Spring] - -> Jetson_Stats_API
    [Spring] - -> PSQL

    Spring_Stats_API - - [Spring]
    Spring_Connect_API - - [Spring]

    database "PostgreSQL" {
        PSQL - - [PostgreSQL]
    }
}

node Client {
    [Desktop] - -> Spring_Connect_API
    [Desktop] - -> Spring_Stats_API
    [Desktop] - -> Jetson_Video_API
}

@enduml

PlantUML version 1.2022.7(Mon Aug 22 20:01:30 MSK 2022)
(GPL source distribution)
Java Runtime: OpenJDK Runtime Environment
JVM: OpenJDK 64-Bit Server VM
Default Encoding: UTF-8
Language: en
Country: US
--></g></svg>