<?xml version="1.0" encoding="UTF-8" standalone="no"?><svg xmlns="http://www.w3.org/2000/svg" xmlns:xlink="http://www.w3.org/1999/xlink" contentStyleType="text/css" height="610px" preserveAspectRatio="none" style="width:765px;height:610px;background:#FFFFFF;" version="1.1" viewBox="0 0 765 610" width="765px" zoomAndPan="magnify"><defs/><g><!--MD5=[53e1c2ef2f79a4ab13fbcdbbe9c14515]
cluster Jetson Nano & Camera--><g id="cluster_Jetson Nano &amp; Camera"><polygon fill="none" points="495.4187,352,505.4187,342,748.4187,342,748.4187,583,738.4187,593,495.4187,593,495.4187,352" style="stroke:#181818;stroke-width:1.0;"/><line style="stroke:#181818;stroke-width:1.0;" x1="738.4187" x2="748.4187" y1="352" y2="342"/><line style="stroke:#181818;stroke-width:1.0;" x1="495.4187" x2="738.4187" y1="352" y2="352"/><line style="stroke:#181818;stroke-width:1.0;" x1="738.4187" x2="738.4187" y1="352" y2="593"/><text fill="#000000" font-family="sans-serif" font-size="14" font-weight="bold" lengthAdjust="spacing" textLength="177" x="529.4187" y="367.9951">Jetson Nano &amp; Camera</text></g><g id="cluster_##11"><path d="M33.2379,169.2218 C39.71,151.8348 55.2901,149.6178 65.063,166.1223 C73.4944,149.9181 84.1159,151.0215 94.2077,164.4916 C102.2894,149.4658 114.0598,150.0873 123.791,162.7278 C135.2698,144.8959 150.2447,147.2043 158.672,165.661 C168.6855,148.9757 179.0344,150.3669 189.4564,165.2628 C196.899,150.7615 208.3815,149.6452 217.9308,163.1184 C225.6305,148.9673 236.3174,148.0862 244.883,162.2955 C254.7008,145.4724 268.6722,144.9292 277.8209,162.9285 C285.7283,151.3714 295.906,147.9669 305.2874,161.3021 C319.1967,144.0903 330.0967,144.2616 340.6639,164.4623 C346.0625,151.0964 359.0393,149.1839 366.8847,162.013 C375.7675,149.1534 390.5232,150.6471 397.1022,164.6086 C407.5333,147.8977 422.8761,150.7284 430.9562,167.0202 C444.5346,152.8119 454.615,155.0832 463.4187,172 C467.6803,171.236 469.1407,173.816 468.3483,177.545 C486.1337,187.2702 483.7206,204.0952 467.1836,212.6827 C481.7099,221.5204 485.4522,232.7758 470.5658,244.7188 C491.6889,254.9563 492.0105,267.7942 474.899,282.4256 C487.8898,291.075 488.4814,307.082 473.3034,314.3225 C492.1984,326.1561 494.4111,340.1329 474.0591,352.7385 C492.2615,363.0736 489.2923,379.6966 472.3704,388.3668 C487.2934,402.078 484.2266,413.4053 466.1833,420.8342 C479.0988,436.6801 479.6277,453.1604 456.4187,460 C458.7158,461.203 458.7613,462.6592 456.835,464.2735 C449.9511,475.2549 437.919,477.1521 430.8434,464.4843 C421.1783,481.7412 408.4773,478.6054 399.0979,464.1979 C392.0595,479.9006 377.6739,480.2611 369.065,465.7594 C359.7642,484.4107 349.572,486.0603 336.0416,469.7552 C328.7927,481.2546 316.3065,482.6901 308.2119,470.7596 C298.4791,487.8568 289.0264,488.8947 276.8766,473.0594 C267.0773,487.847 254.4293,487.6042 246.7106,471.0565 C238.1911,484.2761 224.3898,483.0056 217.3512,469.4336 C208.911,482.2243 196.0173,483.0905 186.8183,470.3406 C175.849,482.724 166.8806,481.3183 158.4864,467.5507 C148.3536,484.1075 134.4879,482.633 125.6563,466.2537 C114.9917,482.7374 105.086,480.1524 95.1978,465.4942 C85.328,479.4165 71.9721,482.0055 63.2337,464.349 C48.8393,477.7261 28.7821,476.3786 25.4187,453 C27.8277,453.5266 28.357,455.4631 26.7583,457.2522 C10.9833,444.7846 8.1503,433.3815 25.3264,419.6589 C11.4741,409.2304 12.2793,391.6153 29.0001,384.3696 C11.7214,374.7173 12.1309,362.508 25.6406,349.8586 C11.5325,338.3257 11.5978,326.8258 25.5965,315.257 C8.197,305.3333 8.0097,295.1358 22.7001,282.3846 C6,269.1953 9.3648,254.1873 26.4441,244.3206 C12.8747,232.0005 14.6089,222.1369 28.6737,211.7061 C9.2129,197.9669 12.08,175.548 32.4187,165 C34.531,166.039 34.7111,167.4871 33.2379,169.2218 " fill="none" style="stroke:#181818;stroke-width:1.0;"/></g><!--MD5=[e9cbb9dd88ded91326c7c57ecf0f8dfc]
cluster PostgreSQL--><g id="cluster_PostgreSQL"><path d="M260.4187,342 C260.4187,332 353.9187,332 353.9187,332 C353.9187,332 447.4187,332 447.4187,342 L447.4187,434 C447.4187,444 353.9187,444 353.9187,444 C353.9187,444 260.4187,444 260.4187,434 L260.4187,342 " fill="none" style="stroke:#181818;stroke-width:1.0;"/><path d="M260.4187,342 C260.4187,352 353.9187,352 353.9187,352 C353.9187,352 447.4187,352 447.4187,342 " fill="none" style="stroke:#181818;stroke-width:1.0;"/><text fill="#000000" font-family="sans-serif" font-size="14" font-weight="bold" lengthAdjust="spacing" textLength="93" x="307.4187" y="366.9951">PostgreSQL</text></g><!--MD5=[b4e09d266be9964199f2622adcc056fa]
cluster Backend--><g id="cluster_Backend"><polygon fill="none" points="278.4187,191,288.4187,181,447.4187,181,447.4187,273,437.4187,283,278.4187,283,278.4187,191" style="stroke:#181818;stroke-width:1.0;"/><line style="stroke:#181818;stroke-width:1.0;" x1="437.4187" x2="447.4187" y1="191" y2="181"/><line style="stroke:#181818;stroke-width:1.0;" x1="278.4187" x2="437.4187" y1="191" y2="191"/><line style="stroke:#181818;stroke-width:1.0;" x1="437.4187" x2="437.4187" y1="191" y2="283"/><text fill="#000000" font-family="sans-serif" font-size="14" font-weight="bold" lengthAdjust="spacing" textLength="67" x="325.4187" y="206.9951">Backend</text></g><!--MD5=[fca8240bc233c06068545f9c8883ae88]
cluster Frontend--><g id="cluster_Frontend"><polygon fill="none" points="41.4187,191,51.4187,181,254.4187,181,254.4187,273,244.4187,283,41.4187,283,41.4187,191" style="stroke:#181818;stroke-width:1.0;"/><line style="stroke:#181818;stroke-width:1.0;" x1="244.4187" x2="254.4187" y1="191" y2="181"/><line style="stroke:#181818;stroke-width:1.0;" x1="41.4187" x2="244.4187" y1="191" y2="191"/><line style="stroke:#181818;stroke-width:1.0;" x1="244.4187" x2="244.4187" y1="191" y2="283"/><text fill="#000000" font-family="sans-serif" font-size="14" font-weight="bold" lengthAdjust="spacing" textLength="72" x="107.9187" y="206.9951">Frontend</text></g><!--MD5=[406b65fecc21e832f7a9b6ebadc6dce1]
cluster Client--><g id="cluster_Client"><polygon fill="none" points="106.4187,16,116.4187,6,369.4187,6,369.4187,98,359.4187,108,106.4187,108,106.4187,16" style="stroke:#181818;stroke-width:1.0;"/><line style="stroke:#181818;stroke-width:1.0;" x1="359.4187" x2="369.4187" y1="16" y2="6"/><line style="stroke:#181818;stroke-width:1.0;" x1="106.4187" x2="359.4187" y1="16" y2="16"/><line style="stroke:#181818;stroke-width:1.0;" x1="359.4187" x2="359.4187" y1="16" y2="108"/><text fill="#000000" font-family="sans-serif" font-size="14" font-weight="bold" lengthAdjust="spacing" textLength="45" x="211.4187" y="31.9951">Client</text></g><!--MD5=[0e648717a0bcd4faa4918ff82cc48d0b]
entity Stream--><g id="elem_Stream"><ellipse cx="551.4187" cy="554" fill="#F1F1F1" rx="8" ry="8" style="stroke:#181818;stroke-width:0.5;"/><text fill="#000000" font-family="sans-serif" font-size="14" lengthAdjust="spacing" textLength="49" x="526.9187" y="583.9951">Stream</text></g><!--MD5=[c8f729b8e352a0860913e8756c4779b6]
entity Camera--><g id="elem_Camera"><rect fill="#F1F1F1" height="46.2969" rx="2.5" ry="2.5" style="stroke:#181818;stroke-width:0.5;" width="93" x="595.9187" y="531"/><rect fill="#F1F1F1" height="10" style="stroke:#181818;stroke-width:0.5;" width="15" x="668.9187" y="536"/><rect fill="#F1F1F1" height="2" style="stroke:#181818;stroke-width:0.5;" width="4" x="666.9187" y="538"/><rect fill="#F1F1F1" height="2" style="stroke:#181818;stroke-width:0.5;" width="4" x="666.9187" y="542"/><text fill="#000000" font-family="sans-serif" font-size="14" lengthAdjust="spacing" textLength="53" x="610.9187" y="563.9951">Camera</text></g><!--MD5=[55f6823041dd04528382dc7d9ec84a25]
entity JetsonAPI--><g id="elem_JetsonAPI"><ellipse cx="520.4187" cy="405" fill="#F1F1F1" rx="8" ry="8" style="stroke:#181818;stroke-width:0.5;"/><text fill="#000000" font-family="sans-serif" font-size="14" lengthAdjust="spacing" textLength="64" x="488.4187" y="434.9951">JetsonAPI</text></g><!--MD5=[cf738e73942af77e233a8bc8b4c54bb1]
entity Jetson Nano--><g id="elem_Jetson Nano"><rect fill="#F1F1F1" height="46.2969" rx="2.5" ry="2.5" style="stroke:#181818;stroke-width:0.5;" width="123" x="564.9187" y="382"/><rect fill="#F1F1F1" height="10" style="stroke:#181818;stroke-width:0.5;" width="15" x="667.9187" y="387"/><rect fill="#F1F1F1" height="2" style="stroke:#181818;stroke-width:0.5;" width="4" x="665.9187" y="389"/><rect fill="#F1F1F1" height="2" style="stroke:#181818;stroke-width:0.5;" width="4" x="665.9187" y="393"/><text fill="#000000" font-family="sans-serif" font-size="14" lengthAdjust="spacing" textLength="83" x="579.9187" y="414.9951">Jetson Nano</text></g><!--MD5=[b98520a36f901888a6badef9de35a53c]
entity PSQL--><g id="elem_PSQL"><ellipse cx="285.4187" cy="405" fill="#F1F1F1" rx="8" ry="8" style="stroke:#181818;stroke-width:0.5;"/><text fill="#000000" font-family="sans-serif" font-size="14" lengthAdjust="spacing" textLength="36" x="267.4187" y="434.9951">PSQL</text></g><!--MD5=[acdad9cc4a2e41d203bde57278ff518b]
entity Statistics--><g id="elem_Statistics"><rect fill="#F1F1F1" height="46.2969" rx="2.5" ry="2.5" style="stroke:#181818;stroke-width:0.5;" width="102" x="329.4187" y="382"/><rect fill="#F1F1F1" height="10" style="stroke:#181818;stroke-width:0.5;" width="15" x="411.4187" y="387"/><rect fill="#F1F1F1" height="2" style="stroke:#181818;stroke-width:0.5;" width="4" x="409.4187" y="389"/><rect fill="#F1F1F1" height="2" style="stroke:#181818;stroke-width:0.5;" width="4" x="409.4187" y="393"/><text fill="#000000" font-family="sans-serif" font-size="14" lengthAdjust="spacing" textLength="62" x="344.4187" y="414.9951">Statistics</text></g><!--MD5=[90c60cf8a2b0f22bb09557bcf2b79499]
entity BackendAPI--><g id="elem_BackendAPI"><ellipse cx="303.4187" cy="244" fill="#F1F1F1" rx="8" ry="8" style="stroke:#181818;stroke-width:0.5;"/><text fill="#000000" font-family="sans-serif" font-size="14" lengthAdjust="spacing" textLength="82" x="262.4187" y="273.9951">BackendAPI</text></g><!--MD5=[d9d71d4211840a16622e2146ed655e13]
entity Spring--><g id="elem_Spring"><rect fill="#F1F1F1" height="46.2969" rx="2.5" ry="2.5" style="stroke:#181818;stroke-width:0.5;" width="84" x="347.4187" y="221"/><rect fill="#F1F1F1" height="10" style="stroke:#181818;stroke-width:0.5;" width="15" x="411.4187" y="226"/><rect fill="#F1F1F1" height="2" style="stroke:#181818;stroke-width:0.5;" width="4" x="409.4187" y="228"/><rect fill="#F1F1F1" height="2" style="stroke:#181818;stroke-width:0.5;" width="4" x="409.4187" y="232"/><text fill="#000000" font-family="sans-serif" font-size="14" lengthAdjust="spacing" textLength="44" x="362.4187" y="253.9951">Spring</text></g><!--MD5=[ca7a160834894a86c58f8f6b854f4485]
entity FrontendAPI--><g id="elem_FrontendAPI"><ellipse cx="66.4187" cy="244" fill="#F1F1F1" rx="8" ry="8" style="stroke:#181818;stroke-width:0.5;"/><text fill="#000000" font-family="sans-serif" font-size="14" lengthAdjust="spacing" textLength="84" x="24.4187" y="273.9951">FrontendAPI</text></g><!--MD5=[093dea0717dfc849cc48983bebf3f98a]
entity React Server--><g id="elem_React Server"><rect fill="#F1F1F1" height="46.2969" rx="2.5" ry="2.5" style="stroke:#181818;stroke-width:0.5;" width="128" x="110.4187" y="221"/><rect fill="#F1F1F1" height="10" style="stroke:#181818;stroke-width:0.5;" width="15" x="218.4187" y="226"/><rect fill="#F1F1F1" height="2" style="stroke:#181818;stroke-width:0.5;" width="4" x="216.4187" y="228"/><rect fill="#F1F1F1" height="2" style="stroke:#181818;stroke-width:0.5;" width="4" x="216.4187" y="232"/><text fill="#000000" font-family="sans-serif" font-size="14" lengthAdjust="spacing" textLength="88" x="125.4187" y="253.9951">React Server</text></g><!--MD5=[e9dede37b31fdda9664526f66258b036]
entity Browser--><g id="elem_Browser"><rect fill="#F1F1F1" height="46.2969" rx="2.5" ry="2.5" style="stroke:#181818;stroke-width:0.5;" width="97" x="121.9187" y="46"/><rect fill="#F1F1F1" height="10" style="stroke:#181818;stroke-width:0.5;" width="15" x="198.9187" y="51"/><rect fill="#F1F1F1" height="2" style="stroke:#181818;stroke-width:0.5;" width="4" x="196.9187" y="53"/><rect fill="#F1F1F1" height="2" style="stroke:#181818;stroke-width:0.5;" width="4" x="196.9187" y="57"/><text fill="#000000" font-family="sans-serif" font-size="14" lengthAdjust="spacing" textLength="57" x="136.9187" y="78.9951">Browser</text></g><!--MD5=[bd0d3c2d865c9ff19a649fcf77cfea2b]
entity Desktop--><g id="elem_Desktop"><rect fill="#F1F1F1" height="46.2969" rx="2.5" ry="2.5" style="stroke:#181818;stroke-width:0.5;" width="99" x="253.9187" y="46"/><rect fill="#F1F1F1" height="10" style="stroke:#181818;stroke-width:0.5;" width="15" x="332.9187" y="51"/><rect fill="#F1F1F1" height="2" style="stroke:#181818;stroke-width:0.5;" width="4" x="330.9187" y="53"/><rect fill="#F1F1F1" height="2" style="stroke:#181818;stroke-width:0.5;" width="4" x="330.9187" y="57"/><text fill="#000000" font-family="sans-serif" font-size="14" lengthAdjust="spacing" textLength="59" x="268.9187" y="78.9951">Desktop</text></g><!--MD5=[83858bc0a6b1b5ebf632c7da284e7a69]
link Stream to Camera--><g id="link_Stream_Camera"><path d="M560.6587,554 C572.3687,554 584.0787,554 595.7887,554 " fill="none" id="Stream-Camera" style="stroke:#181818;stroke-width:1.0;"/></g><!--MD5=[66a85e7a8789a203df7feb3a4d8de9f5]
link JetsonAPI to Jetson Nano--><g id="link_JetsonAPI_Jetson Nano"><path d="M529.5287,405 C541.2587,405 552.9987,405 564.7287,405 " fill="none" id="JetsonAPI-Jetson Nano" style="stroke:#181818;stroke-width:1.0;"/></g><!--MD5=[e68a9460ac20612090f0c5baae20a3f0]
link Jetson Nano to Stream--><g id="link_Jetson Nano_Stream"><path d="M615.1887,428.01 C599.2487,459.24 570.5987,515.42 557.8387,540.41 " fill="none" id="Jetson Nano-to-Stream" style="stroke:#181818;stroke-width:1.0;"/><polygon fill="#181818" points="555.5087,544.98,563.1672,538.7874,557.7848,540.5281,556.0441,535.1457,555.5087,544.98" style="stroke:#181818;stroke-width:1.0;"/><text fill="#000000" font-family="sans-serif" font-size="13" lengthAdjust="spacing" textLength="34" x="585.4187" y="497.0669">video</text></g><!--MD5=[e61ddca6f65de613d689bf5852fa24fe]
link PSQL to Statistics--><g id="link_PSQL_Statistics"><path d="M294.6987,405 C306.1887,405 317.6887,405 329.1887,405 " fill="none" id="PSQL-Statistics" style="stroke:#181818;stroke-width:1.0;"/></g><!--MD5=[70b174b1711f664bbff5dff66dfd7b29]
link BackendAPI to Spring--><g id="link_BackendAPI_Spring"><path d="M312.4887,244 C324.1087,244 335.7287,244 347.3487,244 " fill="none" id="BackendAPI-Spring" style="stroke:#181818;stroke-width:1.0;"/></g><!--MD5=[99f429b08d4bbfb41130cd59deb82226]
link Spring to JetsonAPI--><g id="link_Spring_JetsonAPI"><path d="M407.6287,267.11 C435.6587,301.13 488.4187,365.17 510.4087,391.85 " fill="none" id="Spring-to-JetsonAPI" style="stroke:#181818;stroke-width:1.0;"/><polygon fill="#181818" points="513.6587,395.8,511.0497,386.303,510.4902,391.9321,504.8611,391.3726,513.6587,395.8" style="stroke:#181818;stroke-width:1.0;"/><text fill="#000000" font-family="sans-serif" font-size="13" lengthAdjust="spacing" textLength="85" x="447.4187" y="312.0669">video &amp; stats</text></g><!--MD5=[15534bf3b65886771179357e3d125cc7]
link Spring to PSQL--><g id="link_Spring_PSQL"><path d="M362.3787,267.14 C345.9787,281.8 325.7087,302.27 312.4187,324 C299.3587,345.35 291.7087,373.79 288.0687,390.38 " fill="none" id="Spring-to-PSQL" style="stroke:#181818;stroke-width:1.0;"/><polygon fill="#181818" points="286.9787,395.53,292.7646,387.5598,288.0196,390.6395,284.9398,385.8945,286.9787,395.53" style="stroke:#181818;stroke-width:1.0;"/><text fill="#000000" font-family="sans-serif" font-size="13" lengthAdjust="spacing" textLength="32" x="330.4187" y="312.0669">stats</text></g><!--MD5=[8871dcc3b90e2f89dfddd21c1a1f81d2]
link FrontendAPI to React Server--><g id="link_FrontendAPI_React Server"><path d="M75.6987,244 C87.2687,244 98.8387,244 110.4087,244 " fill="none" id="FrontendAPI-React Server" style="stroke:#181818;stroke-width:1.0;"/></g><!--MD5=[d454c8ac1d402bf415e5dec96b527927]
link Browser to FrontendAPI--><g id="link_Browser_FrontendAPI"><path d="M134.3487,92.25 C122.5587,100.96 110.2487,111.8 101.4187,124 C77.4687,157.12 69.7887,206.53 67.4287,229.88 " fill="none" id="Browser-to-FrontendAPI" style="stroke:#181818;stroke-width:1.0;"/><polygon fill="#181818" points="66.9487,234.97,71.7782,226.3865,67.4194,229.9922,63.8137,225.6334,66.9487,234.97" style="stroke:#181818;stroke-width:1.0;"/><text fill="#000000" font-family="sans-serif" font-size="13" lengthAdjust="spacing" textLength="27" x="102.4187" y="137.0669">view</text></g><!--MD5=[f9d6f306213c3b2a654908c4c00625d5]
link Browser to BackendAPI--><g id="link_Browser_BackendAPI"><path d="M176.5087,92.11 C182.1187,108.22 192.0987,129.21 208.4187,141 C225.2387,153.15 237.6687,136.75 254.4187,149 C281.8287,169.04 295.1787,209.02 300.4987,229.79 " fill="none" id="Browser-to-BackendAPI" style="stroke:#181818;stroke-width:1.0;"/><polygon fill="#181818" points="301.7387,234.87,303.4902,225.1781,300.553,230.0126,295.7185,227.0754,301.7387,234.87" style="stroke:#181818;stroke-width:1.0;"/><text fill="#000000" font-family="sans-serif" font-size="13" lengthAdjust="spacing" textLength="85" x="209.4187" y="137.0669">video &amp; stats</text></g><!--MD5=[c2b5e1e1ff735d1d420cedafa6024009]
link Desktop to BackendAPI--><g id="link_Desktop_BackendAPI"><path d="M303.4187,92.26 C303.4187,128.71 303.4187,200.01 303.4187,229.62 " fill="none" id="Desktop-to-BackendAPI" style="stroke:#181818;stroke-width:1.0;"/><polygon fill="#181818" points="303.4187,234.96,307.4187,225.96,303.4187,229.96,299.4187,225.96,303.4187,234.96" style="stroke:#181818;stroke-width:1.0;"/><text fill="#000000" font-family="sans-serif" font-size="13" lengthAdjust="spacing" textLength="85" x="304.4187" y="137.0669">video &amp; stats</text></g><!--MD5=[001cf28eba27695c528aac893ac35688]
@startuml "Design"

node "Jetson Nano & Camera" {
    Stream - [Camera]
    JetsonAPI - [Jetson Nano]
    [Jetson Nano] - -> Stream : video
}

cloud {
    database "PostgreSQL" {
        PSQL - [Statistics]
    }

    node "Backend" {
        BackendAPI - [Spring]
        [Spring] - -> JetsonAPI : video & stats
        [Spring] - -> PSQL : stats
    }

    node "Frontend" {
        FrontendAPI - [React Server]
    }
}

node Client {
    [Browser] - -> FrontendAPI : view
    [Browser] - -> BackendAPI : video & stats
    [Desktop] - -> BackendAPI : video & stats
}

@enduml

PlantUML version 1.2022.7(Mon Aug 22 20:01:30 MSK 2022)
(GPL source distribution)
Java Runtime: OpenJDK Runtime Environment
JVM: OpenJDK 64-Bit Server VM
Default Encoding: UTF-8
Language: en
Country: US
--></g></svg>